<mxfile host="app.diagrams.net" modified="2023-09-19T19:03:34.572Z" agent="Mozilla/5.0 (Windows NT 10.0; Win64; x64) AppleWebKit/537.36 (KHTML, like Gecko) Chrome/116.0.0.0 Safari/537.36" etag="xHOUX5Qs7cQ3fSFen7lM" version="21.7.5" type="device">
  <diagram name="Page-1" id="2ca16b54-16f6-2749-3443-fa8db7711227">
    <mxGraphModel dx="1434" dy="750" grid="1" gridSize="10" guides="1" tooltips="1" connect="1" arrows="1" fold="1" page="1" pageScale="1" pageWidth="1100" pageHeight="850" background="none" math="0" shadow="0">
      <root>
        <mxCell id="0" />
        <mxCell id="1" parent="0" />
        <mxCell id="2ed32ef02a7f4228-21" style="edgeStyle=orthogonalEdgeStyle;html=1;entryX=0.144;entryY=-0.027;dashed=1;labelBackgroundColor=none;startArrow=ERmandOne;endArrow=ERmandOne;fontFamily=Verdana;fontSize=12;align=left;exitX=0.5;exitY=1;exitDx=0;exitDy=0;entryDx=0;entryDy=0;entryPerimeter=0;endFill=0;" parent="1" source="YRd9fllFHGhW2MFlDV1M-85" target="YRd9fllFHGhW2MFlDV1M-7" edge="1">
          <mxGeometry relative="1" as="geometry">
            <mxPoint x="530" y="290" as="sourcePoint" />
            <mxPoint x="530" y="330" as="targetPoint" />
          </mxGeometry>
        </mxCell>
        <mxCell id="YRd9fllFHGhW2MFlDV1M-7" value="User" style="shape=table;startSize=30;container=1;collapsible=1;childLayout=tableLayout;fixedRows=1;rowLines=0;fontStyle=1;align=center;resizeLast=1;html=1;strokeWidth=1;swimlaneLine=1;bottom=1;" parent="1" vertex="1">
          <mxGeometry x="470" y="340" width="180" height="170" as="geometry" />
        </mxCell>
        <mxCell id="YRd9fllFHGhW2MFlDV1M-8" value="" style="shape=tableRow;horizontal=0;startSize=0;swimlaneHead=0;swimlaneBody=0;fillColor=none;collapsible=0;dropTarget=0;points=[[0,0.5],[1,0.5]];portConstraint=eastwest;top=0;left=0;right=0;bottom=1;" parent="YRd9fllFHGhW2MFlDV1M-7" vertex="1">
          <mxGeometry y="30" width="180" height="20" as="geometry" />
        </mxCell>
        <mxCell id="YRd9fllFHGhW2MFlDV1M-9" value="PK" style="shape=partialRectangle;connectable=0;fillColor=none;top=0;left=0;bottom=0;right=0;fontStyle=1;overflow=hidden;whiteSpace=wrap;html=1;" parent="YRd9fllFHGhW2MFlDV1M-8" vertex="1">
          <mxGeometry width="50" height="20" as="geometry">
            <mxRectangle width="50" height="20" as="alternateBounds" />
          </mxGeometry>
        </mxCell>
        <mxCell id="YRd9fllFHGhW2MFlDV1M-10" value="id" style="shape=partialRectangle;connectable=0;fillColor=none;top=0;left=0;bottom=0;right=0;align=left;spacingLeft=6;fontStyle=5;overflow=hidden;whiteSpace=wrap;html=1;" parent="YRd9fllFHGhW2MFlDV1M-8" vertex="1">
          <mxGeometry x="50" width="130" height="20" as="geometry">
            <mxRectangle width="130" height="20" as="alternateBounds" />
          </mxGeometry>
        </mxCell>
        <mxCell id="YRd9fllFHGhW2MFlDV1M-11" value="" style="shape=tableRow;horizontal=0;startSize=0;swimlaneHead=0;swimlaneBody=0;fillColor=none;collapsible=0;dropTarget=0;points=[[0,0.5],[1,0.5]];portConstraint=eastwest;top=0;left=0;right=0;bottom=0;" parent="YRd9fllFHGhW2MFlDV1M-7" vertex="1">
          <mxGeometry y="50" width="180" height="40" as="geometry" />
        </mxCell>
        <mxCell id="YRd9fllFHGhW2MFlDV1M-12" value="varchar" style="shape=partialRectangle;connectable=0;fillColor=none;top=0;left=0;bottom=0;right=0;editable=1;overflow=hidden;whiteSpace=wrap;html=1;" parent="YRd9fllFHGhW2MFlDV1M-11" vertex="1">
          <mxGeometry width="50" height="40" as="geometry">
            <mxRectangle width="50" height="40" as="alternateBounds" />
          </mxGeometry>
        </mxCell>
        <mxCell id="YRd9fllFHGhW2MFlDV1M-13" value="email" style="shape=partialRectangle;connectable=0;fillColor=none;top=0;left=0;bottom=0;right=0;align=left;spacingLeft=6;overflow=hidden;whiteSpace=wrap;html=1;" parent="YRd9fllFHGhW2MFlDV1M-11" vertex="1">
          <mxGeometry x="50" width="130" height="40" as="geometry">
            <mxRectangle width="130" height="40" as="alternateBounds" />
          </mxGeometry>
        </mxCell>
        <mxCell id="YRd9fllFHGhW2MFlDV1M-14" value="" style="shape=tableRow;horizontal=0;startSize=0;swimlaneHead=0;swimlaneBody=0;fillColor=none;collapsible=0;dropTarget=0;points=[[0,0.5],[1,0.5]];portConstraint=eastwest;top=0;left=0;right=0;bottom=0;" parent="YRd9fllFHGhW2MFlDV1M-7" vertex="1">
          <mxGeometry y="90" width="180" height="30" as="geometry" />
        </mxCell>
        <mxCell id="YRd9fllFHGhW2MFlDV1M-15" value="varchar" style="shape=partialRectangle;connectable=0;fillColor=none;top=0;left=0;bottom=0;right=0;editable=1;overflow=hidden;whiteSpace=wrap;html=1;" parent="YRd9fllFHGhW2MFlDV1M-14" vertex="1">
          <mxGeometry width="50" height="30" as="geometry">
            <mxRectangle width="50" height="30" as="alternateBounds" />
          </mxGeometry>
        </mxCell>
        <mxCell id="YRd9fllFHGhW2MFlDV1M-16" value="password" style="shape=partialRectangle;connectable=0;fillColor=none;top=0;left=0;bottom=0;right=0;align=left;spacingLeft=6;overflow=hidden;whiteSpace=wrap;html=1;" parent="YRd9fllFHGhW2MFlDV1M-14" vertex="1">
          <mxGeometry x="50" width="130" height="30" as="geometry">
            <mxRectangle width="130" height="30" as="alternateBounds" />
          </mxGeometry>
        </mxCell>
        <mxCell id="YRd9fllFHGhW2MFlDV1M-17" value="" style="shape=tableRow;horizontal=0;startSize=0;swimlaneHead=0;swimlaneBody=0;fillColor=none;collapsible=0;dropTarget=0;points=[[0,0.5],[1,0.5]];portConstraint=eastwest;top=0;left=0;right=0;bottom=0;" parent="YRd9fllFHGhW2MFlDV1M-7" vertex="1">
          <mxGeometry y="120" width="180" height="50" as="geometry" />
        </mxCell>
        <mxCell id="YRd9fllFHGhW2MFlDV1M-18" value="varchar" style="shape=partialRectangle;connectable=0;fillColor=none;top=0;left=0;bottom=0;right=0;editable=1;overflow=hidden;whiteSpace=wrap;html=1;" parent="YRd9fllFHGhW2MFlDV1M-17" vertex="1">
          <mxGeometry width="50" height="50" as="geometry">
            <mxRectangle width="50" height="50" as="alternateBounds" />
          </mxGeometry>
        </mxCell>
        <mxCell id="YRd9fllFHGhW2MFlDV1M-19" value="number" style="shape=partialRectangle;connectable=0;fillColor=none;top=0;left=0;bottom=0;right=0;align=left;spacingLeft=6;overflow=hidden;whiteSpace=wrap;html=1;" parent="YRd9fllFHGhW2MFlDV1M-17" vertex="1">
          <mxGeometry x="50" width="130" height="50" as="geometry">
            <mxRectangle width="130" height="50" as="alternateBounds" />
          </mxGeometry>
        </mxCell>
        <mxCell id="YRd9fllFHGhW2MFlDV1M-20" value="Comment" style="shape=table;startSize=30;container=1;collapsible=1;childLayout=tableLayout;fixedRows=1;rowLines=0;fontStyle=1;align=center;resizeLast=1;html=1;movable=1;resizable=1;rotatable=1;deletable=1;editable=1;locked=0;connectable=1;" parent="1" vertex="1">
          <mxGeometry x="470" y="80" width="180" height="190" as="geometry" />
        </mxCell>
        <mxCell id="YRd9fllFHGhW2MFlDV1M-21" value="" style="shape=tableRow;horizontal=0;startSize=0;swimlaneHead=0;swimlaneBody=0;fillColor=none;collapsible=0;dropTarget=0;points=[[0,0.5],[1,0.5]];portConstraint=eastwest;top=0;left=0;right=0;bottom=1;movable=1;resizable=1;rotatable=1;deletable=1;editable=1;locked=0;connectable=1;" parent="YRd9fllFHGhW2MFlDV1M-20" vertex="1">
          <mxGeometry y="30" width="180" height="30" as="geometry" />
        </mxCell>
        <mxCell id="YRd9fllFHGhW2MFlDV1M-22" value="PK" style="shape=partialRectangle;connectable=0;fillColor=none;top=0;left=0;bottom=0;right=0;fontStyle=1;overflow=hidden;whiteSpace=wrap;html=1;movable=0;resizable=0;rotatable=0;deletable=0;editable=0;locked=1;" parent="YRd9fllFHGhW2MFlDV1M-21" vertex="1">
          <mxGeometry width="50" height="30" as="geometry">
            <mxRectangle width="50" height="30" as="alternateBounds" />
          </mxGeometry>
        </mxCell>
        <mxCell id="YRd9fllFHGhW2MFlDV1M-23" value="id" style="shape=partialRectangle;connectable=1;fillColor=none;top=0;left=0;bottom=0;right=0;align=left;spacingLeft=6;fontStyle=5;overflow=hidden;whiteSpace=wrap;html=1;movable=1;resizable=1;rotatable=1;deletable=1;editable=1;locked=0;" parent="YRd9fllFHGhW2MFlDV1M-21" vertex="1">
          <mxGeometry x="50" width="130" height="30" as="geometry">
            <mxRectangle width="130" height="30" as="alternateBounds" />
          </mxGeometry>
        </mxCell>
        <mxCell id="YRd9fllFHGhW2MFlDV1M-24" value="" style="shape=tableRow;horizontal=0;startSize=0;swimlaneHead=0;swimlaneBody=0;fillColor=none;collapsible=0;dropTarget=0;points=[[0,0.5],[1,0.5]];portConstraint=eastwest;top=0;left=0;right=0;bottom=0;movable=1;resizable=1;rotatable=1;deletable=1;editable=1;locked=0;connectable=1;" parent="YRd9fllFHGhW2MFlDV1M-20" vertex="1">
          <mxGeometry y="60" width="180" height="30" as="geometry" />
        </mxCell>
        <mxCell id="YRd9fllFHGhW2MFlDV1M-25" value="int" style="shape=partialRectangle;connectable=1;fillColor=none;top=0;left=0;bottom=0;right=0;editable=1;overflow=hidden;whiteSpace=wrap;html=1;movable=1;resizable=1;rotatable=1;deletable=1;locked=0;" parent="YRd9fllFHGhW2MFlDV1M-24" vertex="1">
          <mxGeometry width="50" height="30" as="geometry">
            <mxRectangle width="50" height="30" as="alternateBounds" />
          </mxGeometry>
        </mxCell>
        <mxCell id="YRd9fllFHGhW2MFlDV1M-26" value="rating" style="shape=partialRectangle;connectable=1;fillColor=none;top=0;left=0;bottom=0;right=0;align=left;spacingLeft=6;overflow=hidden;whiteSpace=wrap;html=1;movable=1;resizable=1;rotatable=1;deletable=1;editable=1;locked=0;" parent="YRd9fllFHGhW2MFlDV1M-24" vertex="1">
          <mxGeometry x="50" width="130" height="30" as="geometry">
            <mxRectangle width="130" height="30" as="alternateBounds" />
          </mxGeometry>
        </mxCell>
        <mxCell id="YRd9fllFHGhW2MFlDV1M-27" value="" style="shape=tableRow;horizontal=0;startSize=0;swimlaneHead=0;swimlaneBody=0;fillColor=none;collapsible=0;dropTarget=0;points=[[0,0.5],[1,0.5]];portConstraint=eastwest;top=0;left=0;right=0;bottom=0;movable=1;resizable=1;rotatable=1;deletable=1;editable=1;locked=0;connectable=1;" parent="YRd9fllFHGhW2MFlDV1M-20" vertex="1">
          <mxGeometry y="90" width="180" height="30" as="geometry" />
        </mxCell>
        <mxCell id="YRd9fllFHGhW2MFlDV1M-28" value="varchar" style="shape=partialRectangle;connectable=1;fillColor=none;top=0;left=0;bottom=0;right=0;editable=1;overflow=hidden;whiteSpace=wrap;html=1;movable=1;resizable=1;rotatable=1;deletable=1;locked=0;" parent="YRd9fllFHGhW2MFlDV1M-27" vertex="1">
          <mxGeometry width="50" height="30" as="geometry">
            <mxRectangle width="50" height="30" as="alternateBounds" />
          </mxGeometry>
        </mxCell>
        <mxCell id="YRd9fllFHGhW2MFlDV1M-29" value="discription" style="shape=partialRectangle;connectable=1;fillColor=none;top=0;left=0;bottom=0;right=0;align=left;spacingLeft=6;overflow=hidden;whiteSpace=wrap;html=1;movable=1;resizable=1;rotatable=1;deletable=1;editable=1;locked=0;" parent="YRd9fllFHGhW2MFlDV1M-27" vertex="1">
          <mxGeometry x="50" width="130" height="30" as="geometry">
            <mxRectangle width="130" height="30" as="alternateBounds" />
          </mxGeometry>
        </mxCell>
        <mxCell id="YRd9fllFHGhW2MFlDV1M-30" value="" style="shape=tableRow;horizontal=0;startSize=0;swimlaneHead=0;swimlaneBody=0;fillColor=none;collapsible=0;dropTarget=0;points=[[0,0.5],[1,0.5]];portConstraint=eastwest;top=0;left=0;right=0;bottom=0;movable=1;resizable=1;rotatable=1;deletable=1;editable=1;locked=0;connectable=1;" parent="YRd9fllFHGhW2MFlDV1M-20" vertex="1">
          <mxGeometry y="120" width="180" height="30" as="geometry" />
        </mxCell>
        <mxCell id="YRd9fllFHGhW2MFlDV1M-31" value="FK" style="shape=partialRectangle;connectable=1;fillColor=none;top=0;left=0;bottom=0;right=0;editable=1;overflow=hidden;whiteSpace=wrap;html=1;movable=1;resizable=1;rotatable=1;deletable=1;locked=0;" parent="YRd9fllFHGhW2MFlDV1M-30" vertex="1">
          <mxGeometry width="50" height="30" as="geometry">
            <mxRectangle width="50" height="30" as="alternateBounds" />
          </mxGeometry>
        </mxCell>
        <mxCell id="YRd9fllFHGhW2MFlDV1M-32" value="writter_id" style="shape=partialRectangle;connectable=1;fillColor=none;top=0;left=0;bottom=0;right=0;align=left;spacingLeft=6;overflow=hidden;whiteSpace=wrap;html=1;movable=1;resizable=1;rotatable=1;deletable=1;editable=1;locked=0;" parent="YRd9fllFHGhW2MFlDV1M-30" vertex="1">
          <mxGeometry x="50" width="130" height="30" as="geometry">
            <mxRectangle width="130" height="30" as="alternateBounds" />
          </mxGeometry>
        </mxCell>
        <mxCell id="YRd9fllFHGhW2MFlDV1M-33" value="Cart" style="shape=table;startSize=30;container=1;collapsible=1;childLayout=tableLayout;fixedRows=1;rowLines=0;fontStyle=1;align=center;resizeLast=1;html=1;" parent="1" vertex="1">
          <mxGeometry x="200" y="340" width="180" height="130" as="geometry">
            <mxRectangle x="370" y="210" width="60" height="30" as="alternateBounds" />
          </mxGeometry>
        </mxCell>
        <mxCell id="YRd9fllFHGhW2MFlDV1M-34" value="" style="shape=tableRow;horizontal=0;startSize=0;swimlaneHead=0;swimlaneBody=0;fillColor=none;collapsible=0;dropTarget=0;points=[[0,0.5],[1,0.5]];portConstraint=eastwest;top=0;left=0;right=0;bottom=1;" parent="YRd9fllFHGhW2MFlDV1M-33" vertex="1">
          <mxGeometry y="30" width="180" height="30" as="geometry" />
        </mxCell>
        <mxCell id="YRd9fllFHGhW2MFlDV1M-35" value="PK" style="shape=partialRectangle;connectable=0;fillColor=none;top=0;left=0;bottom=0;right=0;fontStyle=1;overflow=hidden;whiteSpace=wrap;html=1;" parent="YRd9fllFHGhW2MFlDV1M-34" vertex="1">
          <mxGeometry width="30" height="30" as="geometry">
            <mxRectangle width="30" height="30" as="alternateBounds" />
          </mxGeometry>
        </mxCell>
        <mxCell id="YRd9fllFHGhW2MFlDV1M-36" value="id" style="shape=partialRectangle;connectable=0;fillColor=none;top=0;left=0;bottom=0;right=0;align=left;spacingLeft=6;fontStyle=5;overflow=hidden;whiteSpace=wrap;html=1;" parent="YRd9fllFHGhW2MFlDV1M-34" vertex="1">
          <mxGeometry x="30" width="150" height="30" as="geometry">
            <mxRectangle width="150" height="30" as="alternateBounds" />
          </mxGeometry>
        </mxCell>
        <mxCell id="YRd9fllFHGhW2MFlDV1M-37" value="" style="shape=tableRow;horizontal=0;startSize=0;swimlaneHead=0;swimlaneBody=0;fillColor=none;collapsible=0;dropTarget=0;points=[[0,0.5],[1,0.5]];portConstraint=eastwest;top=0;left=0;right=0;bottom=0;" parent="YRd9fllFHGhW2MFlDV1M-33" vertex="1">
          <mxGeometry y="60" width="180" height="30" as="geometry" />
        </mxCell>
        <mxCell id="YRd9fllFHGhW2MFlDV1M-38" value="FK" style="shape=partialRectangle;connectable=0;fillColor=none;top=0;left=0;bottom=0;right=0;editable=1;overflow=hidden;whiteSpace=wrap;html=1;" parent="YRd9fllFHGhW2MFlDV1M-37" vertex="1">
          <mxGeometry width="30" height="30" as="geometry">
            <mxRectangle width="30" height="30" as="alternateBounds" />
          </mxGeometry>
        </mxCell>
        <mxCell id="YRd9fllFHGhW2MFlDV1M-39" value="user_id" style="shape=partialRectangle;connectable=0;fillColor=none;top=0;left=0;bottom=0;right=0;align=left;spacingLeft=6;overflow=hidden;whiteSpace=wrap;html=1;" parent="YRd9fllFHGhW2MFlDV1M-37" vertex="1">
          <mxGeometry x="30" width="150" height="30" as="geometry">
            <mxRectangle width="150" height="30" as="alternateBounds" />
          </mxGeometry>
        </mxCell>
        <mxCell id="YRd9fllFHGhW2MFlDV1M-40" value="" style="shape=tableRow;horizontal=0;startSize=0;swimlaneHead=0;swimlaneBody=0;fillColor=none;collapsible=0;dropTarget=0;points=[[0,0.5],[1,0.5]];portConstraint=eastwest;top=0;left=0;right=0;bottom=0;" parent="YRd9fllFHGhW2MFlDV1M-33" vertex="1">
          <mxGeometry y="90" width="180" height="20" as="geometry" />
        </mxCell>
        <mxCell id="YRd9fllFHGhW2MFlDV1M-41" value="" style="shape=partialRectangle;connectable=0;fillColor=none;top=0;left=0;bottom=0;right=0;editable=1;overflow=hidden;whiteSpace=wrap;html=1;" parent="YRd9fllFHGhW2MFlDV1M-40" vertex="1">
          <mxGeometry width="30" height="20" as="geometry">
            <mxRectangle width="30" height="20" as="alternateBounds" />
          </mxGeometry>
        </mxCell>
        <mxCell id="YRd9fllFHGhW2MFlDV1M-42" value="" style="shape=partialRectangle;connectable=0;fillColor=none;top=0;left=0;bottom=0;right=0;align=left;spacingLeft=6;overflow=hidden;whiteSpace=wrap;html=1;" parent="YRd9fllFHGhW2MFlDV1M-40" vertex="1">
          <mxGeometry x="30" width="150" height="20" as="geometry">
            <mxRectangle width="150" height="20" as="alternateBounds" />
          </mxGeometry>
        </mxCell>
        <mxCell id="YRd9fllFHGhW2MFlDV1M-43" value="" style="shape=tableRow;horizontal=0;startSize=0;swimlaneHead=0;swimlaneBody=0;fillColor=none;collapsible=0;dropTarget=0;points=[[0,0.5],[1,0.5]];portConstraint=eastwest;top=0;left=0;right=0;bottom=0;" parent="YRd9fllFHGhW2MFlDV1M-33" vertex="1">
          <mxGeometry y="110" width="180" height="20" as="geometry" />
        </mxCell>
        <mxCell id="YRd9fllFHGhW2MFlDV1M-44" value="" style="shape=partialRectangle;connectable=0;fillColor=none;top=0;left=0;bottom=0;right=0;editable=1;overflow=hidden;whiteSpace=wrap;html=1;" parent="YRd9fllFHGhW2MFlDV1M-43" vertex="1">
          <mxGeometry width="30" height="20" as="geometry">
            <mxRectangle width="30" height="20" as="alternateBounds" />
          </mxGeometry>
        </mxCell>
        <mxCell id="YRd9fllFHGhW2MFlDV1M-45" value="" style="shape=partialRectangle;connectable=0;fillColor=none;top=0;left=0;bottom=0;right=0;align=left;spacingLeft=6;overflow=hidden;whiteSpace=wrap;html=1;" parent="YRd9fllFHGhW2MFlDV1M-43" vertex="1">
          <mxGeometry x="30" width="150" height="20" as="geometry">
            <mxRectangle width="150" height="20" as="alternateBounds" />
          </mxGeometry>
        </mxCell>
        <mxCell id="YRd9fllFHGhW2MFlDV1M-46" value="Product" style="shape=table;startSize=30;container=1;collapsible=1;childLayout=tableLayout;fixedRows=1;rowLines=0;fontStyle=1;align=center;resizeLast=1;html=1;bottom=0;top=0;left=1;" parent="1" vertex="1">
          <mxGeometry x="740" y="550" width="180" height="150" as="geometry" />
        </mxCell>
        <mxCell id="YRd9fllFHGhW2MFlDV1M-47" value="" style="shape=tableRow;horizontal=0;startSize=0;swimlaneHead=0;swimlaneBody=0;fillColor=none;collapsible=0;dropTarget=0;points=[[0,0.5],[1,0.5]];portConstraint=eastwest;top=0;left=0;right=0;bottom=1;" parent="YRd9fllFHGhW2MFlDV1M-46" vertex="1">
          <mxGeometry y="30" width="180" height="30" as="geometry" />
        </mxCell>
        <mxCell id="YRd9fllFHGhW2MFlDV1M-48" value="PK" style="shape=partialRectangle;connectable=0;fillColor=none;top=0;left=0;bottom=0;right=0;fontStyle=1;overflow=hidden;whiteSpace=wrap;html=1;" parent="YRd9fllFHGhW2MFlDV1M-47" vertex="1">
          <mxGeometry width="50" height="30" as="geometry">
            <mxRectangle width="50" height="30" as="alternateBounds" />
          </mxGeometry>
        </mxCell>
        <mxCell id="YRd9fllFHGhW2MFlDV1M-49" value="id" style="shape=partialRectangle;connectable=0;fillColor=none;top=0;left=0;bottom=0;right=0;align=left;spacingLeft=6;fontStyle=5;overflow=hidden;whiteSpace=wrap;html=1;" parent="YRd9fllFHGhW2MFlDV1M-47" vertex="1">
          <mxGeometry x="50" width="130" height="30" as="geometry">
            <mxRectangle width="130" height="30" as="alternateBounds" />
          </mxGeometry>
        </mxCell>
        <mxCell id="YRd9fllFHGhW2MFlDV1M-50" value="" style="shape=tableRow;horizontal=0;startSize=0;swimlaneHead=0;swimlaneBody=0;fillColor=none;collapsible=0;dropTarget=0;points=[[0,0.5],[1,0.5]];portConstraint=eastwest;top=0;left=0;right=0;bottom=0;" parent="YRd9fllFHGhW2MFlDV1M-46" vertex="1">
          <mxGeometry y="60" width="180" height="30" as="geometry" />
        </mxCell>
        <mxCell id="YRd9fllFHGhW2MFlDV1M-51" value="varchar" style="shape=partialRectangle;connectable=0;fillColor=none;top=0;left=0;bottom=0;right=0;editable=1;overflow=hidden;whiteSpace=wrap;html=1;" parent="YRd9fllFHGhW2MFlDV1M-50" vertex="1">
          <mxGeometry width="50" height="30" as="geometry">
            <mxRectangle width="50" height="30" as="alternateBounds" />
          </mxGeometry>
        </mxCell>
        <mxCell id="YRd9fllFHGhW2MFlDV1M-52" value="name" style="shape=partialRectangle;connectable=0;fillColor=none;top=0;left=0;bottom=0;right=0;align=left;spacingLeft=6;overflow=hidden;whiteSpace=wrap;html=1;" parent="YRd9fllFHGhW2MFlDV1M-50" vertex="1">
          <mxGeometry x="50" width="130" height="30" as="geometry">
            <mxRectangle width="130" height="30" as="alternateBounds" />
          </mxGeometry>
        </mxCell>
        <mxCell id="YRd9fllFHGhW2MFlDV1M-53" value="" style="shape=tableRow;horizontal=0;startSize=0;swimlaneHead=0;swimlaneBody=0;fillColor=none;collapsible=0;dropTarget=0;points=[[0,0.5],[1,0.5]];portConstraint=eastwest;top=0;left=0;right=0;bottom=0;" parent="YRd9fllFHGhW2MFlDV1M-46" vertex="1">
          <mxGeometry y="90" width="180" height="30" as="geometry" />
        </mxCell>
        <mxCell id="YRd9fllFHGhW2MFlDV1M-54" value="varchar" style="shape=partialRectangle;connectable=0;fillColor=none;top=0;left=0;bottom=0;right=0;editable=1;overflow=hidden;whiteSpace=wrap;html=1;" parent="YRd9fllFHGhW2MFlDV1M-53" vertex="1">
          <mxGeometry width="50" height="30" as="geometry">
            <mxRectangle width="50" height="30" as="alternateBounds" />
          </mxGeometry>
        </mxCell>
        <mxCell id="YRd9fllFHGhW2MFlDV1M-55" value="discription" style="shape=partialRectangle;connectable=0;fillColor=none;top=0;left=0;bottom=0;right=0;align=left;spacingLeft=6;overflow=hidden;whiteSpace=wrap;html=1;" parent="YRd9fllFHGhW2MFlDV1M-53" vertex="1">
          <mxGeometry x="50" width="130" height="30" as="geometry">
            <mxRectangle width="130" height="30" as="alternateBounds" />
          </mxGeometry>
        </mxCell>
        <mxCell id="YRd9fllFHGhW2MFlDV1M-56" value="" style="shape=tableRow;horizontal=0;startSize=0;swimlaneHead=0;swimlaneBody=0;fillColor=none;collapsible=0;dropTarget=0;points=[[0,0.5],[1,0.5]];portConstraint=eastwest;top=0;left=0;right=0;bottom=0;" parent="YRd9fllFHGhW2MFlDV1M-46" vertex="1">
          <mxGeometry y="120" width="180" height="30" as="geometry" />
        </mxCell>
        <mxCell id="YRd9fllFHGhW2MFlDV1M-57" value="float" style="shape=partialRectangle;connectable=0;fillColor=none;top=0;left=0;bottom=0;right=0;editable=1;overflow=hidden;whiteSpace=wrap;html=1;" parent="YRd9fllFHGhW2MFlDV1M-56" vertex="1">
          <mxGeometry width="50" height="30" as="geometry">
            <mxRectangle width="50" height="30" as="alternateBounds" />
          </mxGeometry>
        </mxCell>
        <mxCell id="YRd9fllFHGhW2MFlDV1M-58" value="price" style="shape=partialRectangle;connectable=0;fillColor=none;top=0;left=0;bottom=0;right=0;align=left;spacingLeft=6;overflow=hidden;whiteSpace=wrap;html=1;" parent="YRd9fllFHGhW2MFlDV1M-56" vertex="1">
          <mxGeometry x="50" width="130" height="30" as="geometry">
            <mxRectangle width="130" height="30" as="alternateBounds" />
          </mxGeometry>
        </mxCell>
        <mxCell id="YRd9fllFHGhW2MFlDV1M-59" value="UserFavouriteProduct" style="shape=table;startSize=30;container=1;collapsible=1;childLayout=tableLayout;fixedRows=1;rowLines=0;fontStyle=1;align=center;resizeLast=1;html=1;" parent="1" vertex="1">
          <mxGeometry x="740" y="340" width="180" height="140" as="geometry" />
        </mxCell>
        <mxCell id="YRd9fllFHGhW2MFlDV1M-60" value="" style="shape=tableRow;horizontal=0;startSize=0;swimlaneHead=0;swimlaneBody=0;fillColor=none;collapsible=0;dropTarget=0;points=[[0,0.5],[1,0.5]];portConstraint=eastwest;top=0;left=0;right=0;bottom=1;" parent="YRd9fllFHGhW2MFlDV1M-59" vertex="1">
          <mxGeometry y="30" width="180" height="30" as="geometry" />
        </mxCell>
        <mxCell id="YRd9fllFHGhW2MFlDV1M-61" value="PK" style="shape=partialRectangle;connectable=0;fillColor=none;top=0;left=0;bottom=0;right=0;fontStyle=1;overflow=hidden;whiteSpace=wrap;html=1;" parent="YRd9fllFHGhW2MFlDV1M-60" vertex="1">
          <mxGeometry width="30" height="30" as="geometry">
            <mxRectangle width="30" height="30" as="alternateBounds" />
          </mxGeometry>
        </mxCell>
        <mxCell id="YRd9fllFHGhW2MFlDV1M-62" value="UniqueID" style="shape=partialRectangle;connectable=0;fillColor=none;top=0;left=0;bottom=0;right=0;align=left;spacingLeft=6;fontStyle=5;overflow=hidden;whiteSpace=wrap;html=1;" parent="YRd9fllFHGhW2MFlDV1M-60" vertex="1">
          <mxGeometry x="30" width="150" height="30" as="geometry">
            <mxRectangle width="150" height="30" as="alternateBounds" />
          </mxGeometry>
        </mxCell>
        <mxCell id="YRd9fllFHGhW2MFlDV1M-63" value="" style="shape=tableRow;horizontal=0;startSize=0;swimlaneHead=0;swimlaneBody=0;fillColor=none;collapsible=0;dropTarget=0;points=[[0,0.5],[1,0.5]];portConstraint=eastwest;top=0;left=0;right=0;bottom=0;" parent="YRd9fllFHGhW2MFlDV1M-59" vertex="1">
          <mxGeometry y="60" width="180" height="30" as="geometry" />
        </mxCell>
        <mxCell id="YRd9fllFHGhW2MFlDV1M-64" value="FK" style="shape=partialRectangle;connectable=0;fillColor=none;top=0;left=0;bottom=0;right=0;editable=1;overflow=hidden;whiteSpace=wrap;html=1;" parent="YRd9fllFHGhW2MFlDV1M-63" vertex="1">
          <mxGeometry width="30" height="30" as="geometry">
            <mxRectangle width="30" height="30" as="alternateBounds" />
          </mxGeometry>
        </mxCell>
        <mxCell id="YRd9fllFHGhW2MFlDV1M-65" value="user_id" style="shape=partialRectangle;connectable=0;fillColor=none;top=0;left=0;bottom=0;right=0;align=left;spacingLeft=6;overflow=hidden;whiteSpace=wrap;html=1;" parent="YRd9fllFHGhW2MFlDV1M-63" vertex="1">
          <mxGeometry x="30" width="150" height="30" as="geometry">
            <mxRectangle width="150" height="30" as="alternateBounds" />
          </mxGeometry>
        </mxCell>
        <mxCell id="YRd9fllFHGhW2MFlDV1M-66" value="" style="shape=tableRow;horizontal=0;startSize=0;swimlaneHead=0;swimlaneBody=0;fillColor=none;collapsible=0;dropTarget=0;points=[[0,0.5],[1,0.5]];portConstraint=eastwest;top=0;left=0;right=0;bottom=0;" parent="YRd9fllFHGhW2MFlDV1M-59" vertex="1">
          <mxGeometry y="90" width="180" height="30" as="geometry" />
        </mxCell>
        <mxCell id="YRd9fllFHGhW2MFlDV1M-67" value="FK" style="shape=partialRectangle;connectable=0;fillColor=none;top=0;left=0;bottom=0;right=0;editable=1;overflow=hidden;whiteSpace=wrap;html=1;" parent="YRd9fllFHGhW2MFlDV1M-66" vertex="1">
          <mxGeometry width="30" height="30" as="geometry">
            <mxRectangle width="30" height="30" as="alternateBounds" />
          </mxGeometry>
        </mxCell>
        <mxCell id="YRd9fllFHGhW2MFlDV1M-68" value="product_id" style="shape=partialRectangle;connectable=0;fillColor=none;top=0;left=0;bottom=0;right=0;align=left;spacingLeft=6;overflow=hidden;whiteSpace=wrap;html=1;" parent="YRd9fllFHGhW2MFlDV1M-66" vertex="1">
          <mxGeometry x="30" width="150" height="30" as="geometry">
            <mxRectangle width="150" height="30" as="alternateBounds" />
          </mxGeometry>
        </mxCell>
        <mxCell id="YRd9fllFHGhW2MFlDV1M-69" value="" style="shape=tableRow;horizontal=0;startSize=0;swimlaneHead=0;swimlaneBody=0;fillColor=none;collapsible=0;dropTarget=0;points=[[0,0.5],[1,0.5]];portConstraint=eastwest;top=0;left=0;right=0;bottom=0;" parent="YRd9fllFHGhW2MFlDV1M-59" vertex="1">
          <mxGeometry y="120" width="180" height="20" as="geometry" />
        </mxCell>
        <mxCell id="YRd9fllFHGhW2MFlDV1M-70" value="" style="shape=partialRectangle;connectable=0;fillColor=none;top=0;left=0;bottom=0;right=0;editable=1;overflow=hidden;whiteSpace=wrap;html=1;" parent="YRd9fllFHGhW2MFlDV1M-69" vertex="1">
          <mxGeometry width="30" height="20" as="geometry">
            <mxRectangle width="30" height="20" as="alternateBounds" />
          </mxGeometry>
        </mxCell>
        <mxCell id="YRd9fllFHGhW2MFlDV1M-71" value="" style="shape=partialRectangle;connectable=0;fillColor=none;top=0;left=0;bottom=0;right=0;align=left;spacingLeft=6;overflow=hidden;whiteSpace=wrap;html=1;" parent="YRd9fllFHGhW2MFlDV1M-69" vertex="1">
          <mxGeometry x="30" width="150" height="20" as="geometry">
            <mxRectangle width="150" height="20" as="alternateBounds" />
          </mxGeometry>
        </mxCell>
        <mxCell id="YRd9fllFHGhW2MFlDV1M-72" value="CartProduct" style="shape=table;startSize=30;container=1;collapsible=1;childLayout=tableLayout;fixedRows=1;rowLines=0;fontStyle=1;align=center;resizeLast=1;html=1;" parent="1" vertex="1">
          <mxGeometry x="200" y="555" width="180" height="140" as="geometry" />
        </mxCell>
        <mxCell id="YRd9fllFHGhW2MFlDV1M-73" value="" style="shape=tableRow;horizontal=0;startSize=0;swimlaneHead=0;swimlaneBody=0;fillColor=none;collapsible=0;dropTarget=0;points=[[0,0.5],[1,0.5]];portConstraint=eastwest;top=0;left=0;right=0;bottom=1;" parent="YRd9fllFHGhW2MFlDV1M-72" vertex="1">
          <mxGeometry y="30" width="180" height="30" as="geometry" />
        </mxCell>
        <mxCell id="YRd9fllFHGhW2MFlDV1M-74" value="PK" style="shape=partialRectangle;connectable=0;fillColor=none;top=0;left=0;bottom=0;right=0;fontStyle=1;overflow=hidden;whiteSpace=wrap;html=1;" parent="YRd9fllFHGhW2MFlDV1M-73" vertex="1">
          <mxGeometry width="30" height="30" as="geometry">
            <mxRectangle width="30" height="30" as="alternateBounds" />
          </mxGeometry>
        </mxCell>
        <mxCell id="YRd9fllFHGhW2MFlDV1M-75" value="id" style="shape=partialRectangle;connectable=0;fillColor=none;top=0;left=0;bottom=0;right=0;align=left;spacingLeft=6;fontStyle=5;overflow=hidden;whiteSpace=wrap;html=1;" parent="YRd9fllFHGhW2MFlDV1M-73" vertex="1">
          <mxGeometry x="30" width="150" height="30" as="geometry">
            <mxRectangle width="150" height="30" as="alternateBounds" />
          </mxGeometry>
        </mxCell>
        <mxCell id="YRd9fllFHGhW2MFlDV1M-76" value="" style="shape=tableRow;horizontal=0;startSize=0;swimlaneHead=0;swimlaneBody=0;fillColor=none;collapsible=0;dropTarget=0;points=[[0,0.5],[1,0.5]];portConstraint=eastwest;top=0;left=0;right=0;bottom=0;" parent="YRd9fllFHGhW2MFlDV1M-72" vertex="1">
          <mxGeometry y="60" width="180" height="30" as="geometry" />
        </mxCell>
        <mxCell id="YRd9fllFHGhW2MFlDV1M-77" value="FK" style="shape=partialRectangle;connectable=0;fillColor=none;top=0;left=0;bottom=0;right=0;editable=1;overflow=hidden;whiteSpace=wrap;html=1;" parent="YRd9fllFHGhW2MFlDV1M-76" vertex="1">
          <mxGeometry width="30" height="30" as="geometry">
            <mxRectangle width="30" height="30" as="alternateBounds" />
          </mxGeometry>
        </mxCell>
        <mxCell id="YRd9fllFHGhW2MFlDV1M-78" value="cart_id" style="shape=partialRectangle;connectable=0;fillColor=none;top=0;left=0;bottom=0;right=0;align=left;spacingLeft=6;overflow=hidden;whiteSpace=wrap;html=1;" parent="YRd9fllFHGhW2MFlDV1M-76" vertex="1">
          <mxGeometry x="30" width="150" height="30" as="geometry">
            <mxRectangle width="150" height="30" as="alternateBounds" />
          </mxGeometry>
        </mxCell>
        <mxCell id="YRd9fllFHGhW2MFlDV1M-79" value="" style="shape=tableRow;horizontal=0;startSize=0;swimlaneHead=0;swimlaneBody=0;fillColor=none;collapsible=0;dropTarget=0;points=[[0,0.5],[1,0.5]];portConstraint=eastwest;top=0;left=0;right=0;bottom=0;" parent="YRd9fllFHGhW2MFlDV1M-72" vertex="1">
          <mxGeometry y="90" width="180" height="30" as="geometry" />
        </mxCell>
        <mxCell id="YRd9fllFHGhW2MFlDV1M-80" value="FK" style="shape=partialRectangle;connectable=0;fillColor=none;top=0;left=0;bottom=0;right=0;editable=1;overflow=hidden;whiteSpace=wrap;html=1;" parent="YRd9fllFHGhW2MFlDV1M-79" vertex="1">
          <mxGeometry width="30" height="30" as="geometry">
            <mxRectangle width="30" height="30" as="alternateBounds" />
          </mxGeometry>
        </mxCell>
        <mxCell id="YRd9fllFHGhW2MFlDV1M-81" value="product_id" style="shape=partialRectangle;connectable=0;fillColor=none;top=0;left=0;bottom=0;right=0;align=left;spacingLeft=6;overflow=hidden;whiteSpace=wrap;html=1;" parent="YRd9fllFHGhW2MFlDV1M-79" vertex="1">
          <mxGeometry x="30" width="150" height="30" as="geometry">
            <mxRectangle width="150" height="30" as="alternateBounds" />
          </mxGeometry>
        </mxCell>
        <mxCell id="YRd9fllFHGhW2MFlDV1M-82" value="" style="shape=tableRow;horizontal=0;startSize=0;swimlaneHead=0;swimlaneBody=0;fillColor=none;collapsible=0;dropTarget=0;points=[[0,0.5],[1,0.5]];portConstraint=eastwest;top=0;left=0;right=0;bottom=0;" parent="YRd9fllFHGhW2MFlDV1M-72" vertex="1">
          <mxGeometry y="120" width="180" height="20" as="geometry" />
        </mxCell>
        <mxCell id="YRd9fllFHGhW2MFlDV1M-83" value="" style="shape=partialRectangle;connectable=0;fillColor=none;top=0;left=0;bottom=0;right=0;editable=1;overflow=hidden;whiteSpace=wrap;html=1;" parent="YRd9fllFHGhW2MFlDV1M-82" vertex="1">
          <mxGeometry width="30" height="20" as="geometry">
            <mxRectangle width="30" height="20" as="alternateBounds" />
          </mxGeometry>
        </mxCell>
        <mxCell id="YRd9fllFHGhW2MFlDV1M-84" value="" style="shape=partialRectangle;connectable=0;fillColor=none;top=0;left=0;bottom=0;right=0;align=left;spacingLeft=6;overflow=hidden;whiteSpace=wrap;html=1;" parent="YRd9fllFHGhW2MFlDV1M-82" vertex="1">
          <mxGeometry x="30" width="150" height="20" as="geometry">
            <mxRectangle width="150" height="20" as="alternateBounds" />
          </mxGeometry>
        </mxCell>
        <mxCell id="YRd9fllFHGhW2MFlDV1M-85" value="FK" style="shape=partialRectangle;connectable=1;top=0;left=1;bottom=1;right=1;editable=1;overflow=hidden;whiteSpace=wrap;html=1;perimeterSpacing=0;shadow=0;labelBorderColor=none;movable=1;resizable=1;rotatable=1;deletable=1;locked=0;fillColor=none;" parent="1" vertex="1">
          <mxGeometry x="470" y="230" width="50" height="40" as="geometry">
            <mxRectangle width="50" height="30" as="alternateBounds" />
          </mxGeometry>
        </mxCell>
        <mxCell id="YRd9fllFHGhW2MFlDV1M-86" value="&amp;nbsp; user_id" style="shape=partialRectangle;connectable=1;top=0;left=1;bottom=1;right=1;editable=1;overflow=hidden;whiteSpace=wrap;html=1;perimeterSpacing=0;shadow=0;labelBorderColor=none;movable=1;resizable=1;rotatable=1;deletable=1;locked=0;align=left;fillColor=none;" parent="1" vertex="1">
          <mxGeometry x="520" y="230" width="130" height="40" as="geometry">
            <mxRectangle width="50" height="30" as="alternateBounds" />
          </mxGeometry>
        </mxCell>
        <mxCell id="YRd9fllFHGhW2MFlDV1M-102" value="&amp;nbsp; seller_id" style="shape=partialRectangle;connectable=1;top=0;left=1;bottom=0;right=1;editable=1;overflow=hidden;whiteSpace=wrap;html=1;perimeterSpacing=0;shadow=0;labelBorderColor=none;movable=1;resizable=1;rotatable=1;deletable=1;locked=0;align=left;" parent="1" vertex="1">
          <mxGeometry x="790" y="695" width="130" height="40" as="geometry">
            <mxRectangle width="50" height="30" as="alternateBounds" />
          </mxGeometry>
        </mxCell>
        <mxCell id="YRd9fllFHGhW2MFlDV1M-103" value="FK" style="shape=partialRectangle;connectable=1;top=0;left=1;bottom=0;right=1;editable=1;overflow=hidden;whiteSpace=wrap;html=1;perimeterSpacing=0;shadow=0;labelBorderColor=none;movable=1;resizable=1;rotatable=1;deletable=1;locked=0;" parent="1" vertex="1">
          <mxGeometry x="740" y="695" width="50" height="40" as="geometry">
            <mxRectangle width="50" height="30" as="alternateBounds" />
          </mxGeometry>
        </mxCell>
        <mxCell id="YRd9fllFHGhW2MFlDV1M-120" value="Product state" style="swimlane;fontStyle=0;childLayout=stackLayout;horizontal=1;startSize=30;horizontalStack=0;resizeParent=1;resizeParentMax=0;resizeLast=0;collapsible=1;marginBottom=0;whiteSpace=wrap;html=1;" parent="1" vertex="1">
          <mxGeometry x="1010" y="550" width="140" height="150" as="geometry" />
        </mxCell>
        <mxCell id="YRd9fllFHGhW2MFlDV1M-121" value="LIKE NEW" style="text;strokeColor=none;fillColor=none;align=left;verticalAlign=middle;spacingLeft=4;spacingRight=4;overflow=hidden;points=[[0,0.5],[1,0.5]];portConstraint=eastwest;rotatable=0;whiteSpace=wrap;html=1;" parent="YRd9fllFHGhW2MFlDV1M-120" vertex="1">
          <mxGeometry y="30" width="140" height="30" as="geometry" />
        </mxCell>
        <mxCell id="YRd9fllFHGhW2MFlDV1M-122" value="GOOD" style="text;strokeColor=none;fillColor=none;align=left;verticalAlign=middle;spacingLeft=4;spacingRight=4;overflow=hidden;points=[[0,0.5],[1,0.5]];portConstraint=eastwest;rotatable=0;whiteSpace=wrap;html=1;" parent="YRd9fllFHGhW2MFlDV1M-120" vertex="1">
          <mxGeometry y="60" width="140" height="30" as="geometry" />
        </mxCell>
        <mxCell id="YRd9fllFHGhW2MFlDV1M-123" value="OKAY" style="text;strokeColor=none;fillColor=none;align=left;verticalAlign=middle;spacingLeft=4;spacingRight=4;overflow=hidden;points=[[0,0.5],[1,0.5]];portConstraint=eastwest;rotatable=0;whiteSpace=wrap;html=1;" parent="YRd9fllFHGhW2MFlDV1M-120" vertex="1">
          <mxGeometry y="90" width="140" height="30" as="geometry" />
        </mxCell>
        <mxCell id="YRd9fllFHGhW2MFlDV1M-124" value="BAD" style="text;strokeColor=none;fillColor=none;align=left;verticalAlign=middle;spacingLeft=4;spacingRight=4;overflow=hidden;points=[[0,0.5],[1,0.5]];portConstraint=eastwest;rotatable=0;whiteSpace=wrap;html=1;" parent="YRd9fllFHGhW2MFlDV1M-120" vertex="1">
          <mxGeometry y="120" width="140" height="30" as="geometry" />
        </mxCell>
        <mxCell id="YRd9fllFHGhW2MFlDV1M-125" style="edgeStyle=orthogonalEdgeStyle;html=1;entryX=1;entryY=0.5;dashed=1;labelBackgroundColor=none;startArrow=ERmandOne;endArrow=ERmandOne;fontFamily=Verdana;fontSize=12;align=left;endFill=0;entryDx=0;entryDy=0;exitX=1.007;exitY=0.093;exitDx=0;exitDy=0;exitPerimeter=0;" parent="1" source="YRd9fllFHGhW2MFlDV1M-120" target="YRd9fllFHGhW2MFlDV1M-135" edge="1">
          <mxGeometry relative="1" as="geometry">
            <mxPoint x="980" y="460" as="sourcePoint" />
            <mxPoint x="980" y="500" as="targetPoint" />
            <Array as="points">
              <mxPoint x="1180" y="564" />
              <mxPoint x="1180" y="755" />
            </Array>
          </mxGeometry>
        </mxCell>
        <mxCell id="YRd9fllFHGhW2MFlDV1M-127" style="edgeStyle=orthogonalEdgeStyle;html=1;entryX=1;entryY=0.5;dashed=1;labelBackgroundColor=none;startArrow=ERmandOne;endArrow=ERoneToMany;fontFamily=Verdana;fontSize=12;align=left;entryDx=0;entryDy=0;exitX=0;exitY=0.5;exitDx=0;exitDy=0;" parent="1" source="YRd9fllFHGhW2MFlDV1M-47" target="YRd9fllFHGhW2MFlDV1M-79" edge="1">
          <mxGeometry relative="1" as="geometry">
            <mxPoint x="570" y="620" as="sourcePoint" />
            <mxPoint x="570" y="660" as="targetPoint" />
            <Array as="points">
              <mxPoint x="560" y="595" />
              <mxPoint x="560" y="660" />
            </Array>
          </mxGeometry>
        </mxCell>
        <mxCell id="YRd9fllFHGhW2MFlDV1M-128" style="edgeStyle=orthogonalEdgeStyle;html=1;entryX=0;entryY=0.5;dashed=1;labelBackgroundColor=none;startArrow=ERmandOne;endArrow=ERoneToMany;fontFamily=Verdana;fontSize=12;align=left;exitX=0;exitY=0.5;exitDx=0;exitDy=0;entryDx=0;entryDy=0;" parent="1" source="YRd9fllFHGhW2MFlDV1M-34" target="YRd9fllFHGhW2MFlDV1M-76" edge="1">
          <mxGeometry relative="1" as="geometry">
            <mxPoint x="494.5" y="540" as="sourcePoint" />
            <mxPoint x="494.5" y="580" as="targetPoint" />
            <Array as="points">
              <mxPoint x="150" y="385" />
              <mxPoint x="150" y="630" />
            </Array>
          </mxGeometry>
        </mxCell>
        <mxCell id="YRd9fllFHGhW2MFlDV1M-129" style="edgeStyle=orthogonalEdgeStyle;html=1;entryX=0;entryY=0.5;dashed=1;labelBackgroundColor=none;startArrow=ERmandOne;endArrow=ERmandOne;fontFamily=Verdana;fontSize=12;align=left;endFill=0;exitX=1;exitY=0.5;exitDx=0;exitDy=0;entryDx=0;entryDy=0;" parent="1" source="YRd9fllFHGhW2MFlDV1M-37" target="YRd9fllFHGhW2MFlDV1M-8" edge="1">
          <mxGeometry relative="1" as="geometry">
            <mxPoint x="430" y="405" as="sourcePoint" />
            <mxPoint x="430" y="445" as="targetPoint" />
          </mxGeometry>
        </mxCell>
        <mxCell id="YRd9fllFHGhW2MFlDV1M-135" value="&amp;nbsp; state_id" style="shape=partialRectangle;connectable=1;top=0;left=1;bottom=0;right=1;editable=1;overflow=hidden;whiteSpace=wrap;html=1;perimeterSpacing=0;shadow=0;labelBorderColor=none;movable=1;resizable=1;rotatable=1;deletable=1;locked=0;align=left;fillColor=none;" parent="1" vertex="1">
          <mxGeometry x="790" y="735" width="130" height="40" as="geometry">
            <mxRectangle width="50" height="30" as="alternateBounds" />
          </mxGeometry>
        </mxCell>
        <mxCell id="YRd9fllFHGhW2MFlDV1M-136" value="FK" style="shape=partialRectangle;connectable=1;top=0;left=1;bottom=0;right=1;editable=1;overflow=hidden;whiteSpace=wrap;html=1;perimeterSpacing=0;shadow=0;labelBorderColor=none;movable=1;resizable=1;rotatable=1;deletable=1;locked=0;fillColor=none;" parent="1" vertex="1">
          <mxGeometry x="740" y="735" width="50" height="40" as="geometry">
            <mxRectangle width="50" height="30" as="alternateBounds" />
          </mxGeometry>
        </mxCell>
        <mxCell id="YRd9fllFHGhW2MFlDV1M-144" style="edgeStyle=orthogonalEdgeStyle;html=1;dashed=1;labelBackgroundColor=none;startArrow=ERmandOne;endArrow=ERmandOne;fontFamily=Verdana;fontSize=12;align=left;exitX=0;exitY=0.5;exitDx=0;exitDy=0;endFill=0;entryX=-0.017;entryY=0.106;entryDx=0;entryDy=0;entryPerimeter=0;" parent="1" source="YRd9fllFHGhW2MFlDV1M-31" target="YRd9fllFHGhW2MFlDV1M-7" edge="1">
          <mxGeometry relative="1" as="geometry">
            <mxPoint x="379" y="220" as="sourcePoint" />
            <mxPoint x="430" y="360" as="targetPoint" />
            <Array as="points">
              <mxPoint x="430" y="215" />
              <mxPoint x="430" y="358" />
            </Array>
          </mxGeometry>
        </mxCell>
        <mxCell id="YRd9fllFHGhW2MFlDV1M-145" style="edgeStyle=orthogonalEdgeStyle;html=1;entryX=0;entryY=0.5;dashed=1;labelBackgroundColor=none;startArrow=ERmandOne;endArrow=ERoneToMany;fontFamily=Verdana;fontSize=12;align=left;exitX=-0.011;exitY=0.113;exitDx=0;exitDy=0;exitPerimeter=0;entryDx=0;entryDy=0;" parent="1" source="YRd9fllFHGhW2MFlDV1M-46" target="YRd9fllFHGhW2MFlDV1M-66" edge="1">
          <mxGeometry relative="1" as="geometry">
            <mxPoint x="620" y="550" as="sourcePoint" />
            <mxPoint x="620" y="590" as="targetPoint" />
            <Array as="points">
              <mxPoint x="720" y="567" />
              <mxPoint x="720" y="445" />
            </Array>
          </mxGeometry>
        </mxCell>
        <mxCell id="YRd9fllFHGhW2MFlDV1M-146" style="edgeStyle=orthogonalEdgeStyle;html=1;entryX=0;entryY=0.5;dashed=1;labelBackgroundColor=none;startArrow=ERmandOne;endArrow=ERoneToMany;fontFamily=Verdana;fontSize=12;align=left;exitX=1;exitY=0.5;exitDx=0;exitDy=0;entryDx=0;entryDy=0;" parent="1" source="YRd9fllFHGhW2MFlDV1M-8" target="YRd9fllFHGhW2MFlDV1M-63" edge="1">
          <mxGeometry relative="1" as="geometry">
            <mxPoint x="720" y="450" as="sourcePoint" />
            <mxPoint x="720" y="490" as="targetPoint" />
          </mxGeometry>
        </mxCell>
        <mxCell id="YRd9fllFHGhW2MFlDV1M-147" style="edgeStyle=orthogonalEdgeStyle;html=1;entryX=1;entryY=0.5;dashed=1;labelBackgroundColor=none;startArrow=ERmandOne;endArrow=ERmandOne;fontFamily=Verdana;fontSize=12;align=left;endFill=0;entryDx=0;entryDy=0;exitX=1.006;exitY=0.087;exitDx=0;exitDy=0;exitPerimeter=0;" parent="1" source="YRd9fllFHGhW2MFlDV1M-7" target="YRd9fllFHGhW2MFlDV1M-47" edge="1">
          <mxGeometry relative="1" as="geometry">
            <mxPoint x="980" y="440" as="sourcePoint" />
            <mxPoint x="980" y="480" as="targetPoint" />
            <Array as="points">
              <mxPoint x="680" y="353" />
              <mxPoint x="680" y="310" />
              <mxPoint x="960" y="310" />
              <mxPoint x="960" y="595" />
            </Array>
          </mxGeometry>
        </mxCell>
        <mxCell id="JBinNJkh7F1MeIGXUC0t-4" value="?" style="shape=partialRectangle;connectable=1;top=0;left=1;bottom=1;right=1;editable=1;overflow=hidden;whiteSpace=wrap;html=1;perimeterSpacing=0;shadow=0;labelBorderColor=none;movable=1;resizable=1;rotatable=1;deletable=1;locked=0;fillColor=none;" parent="1" vertex="1">
          <mxGeometry x="740" y="775" width="50" height="40" as="geometry">
            <mxRectangle width="50" height="30" as="alternateBounds" />
          </mxGeometry>
        </mxCell>
        <mxCell id="JBinNJkh7F1MeIGXUC0t-5" value="&amp;nbsp; image" style="shape=partialRectangle;connectable=1;top=0;left=1;bottom=1;right=1;editable=1;overflow=hidden;whiteSpace=wrap;html=1;perimeterSpacing=0;shadow=0;labelBorderColor=none;movable=1;resizable=1;rotatable=1;deletable=1;locked=0;align=left;fillColor=none;" parent="1" vertex="1">
          <mxGeometry x="790" y="775" width="130" height="40" as="geometry">
            <mxRectangle width="50" height="30" as="alternateBounds" />
          </mxGeometry>
        </mxCell>
        <mxCell id="j93-CXMJl5on4R9DwfRJ-1" style="edgeStyle=orthogonalEdgeStyle;html=1;entryX=1;entryY=0.5;dashed=1;labelBackgroundColor=none;startArrow=ERmandOne;endArrow=ERmandOne;fontFamily=Verdana;fontSize=12;align=left;endFill=0;entryDx=0;entryDy=0;exitX=0.556;exitY=0;exitDx=0;exitDy=0;exitPerimeter=0;" edge="1" parent="1" source="YRd9fllFHGhW2MFlDV1M-7" target="YRd9fllFHGhW2MFlDV1M-102">
          <mxGeometry relative="1" as="geometry">
            <mxPoint x="870" y="214" as="sourcePoint" />
            <mxPoint x="1139" y="455" as="targetPoint" />
            <Array as="points">
              <mxPoint x="570" y="280" />
              <mxPoint x="990" y="280" />
              <mxPoint x="990" y="715" />
            </Array>
          </mxGeometry>
        </mxCell>
        <mxCell id="j93-CXMJl5on4R9DwfRJ-2" value="varchar" style="shape=partialRectangle;connectable=1;top=0;left=1;bottom=0;right=1;editable=1;overflow=hidden;whiteSpace=wrap;html=1;perimeterSpacing=0;shadow=0;labelBorderColor=none;movable=1;resizable=1;rotatable=1;deletable=1;locked=0;" vertex="1" parent="1">
          <mxGeometry x="470" y="500" width="50" height="40" as="geometry">
            <mxRectangle width="50" height="30" as="alternateBounds" />
          </mxGeometry>
        </mxCell>
        <mxCell id="j93-CXMJl5on4R9DwfRJ-3" value="&amp;nbsp; first_name" style="shape=partialRectangle;connectable=1;top=0;left=1;bottom=0;right=1;editable=1;overflow=hidden;whiteSpace=wrap;html=1;perimeterSpacing=0;shadow=0;labelBorderColor=none;movable=1;resizable=1;rotatable=1;deletable=1;locked=0;align=left;" vertex="1" parent="1">
          <mxGeometry x="520" y="500" width="130" height="40" as="geometry">
            <mxRectangle width="50" height="30" as="alternateBounds" />
          </mxGeometry>
        </mxCell>
        <mxCell id="j93-CXMJl5on4R9DwfRJ-7" value="varchar" style="shape=partialRectangle;connectable=1;top=0;left=1;bottom=1;right=1;editable=1;overflow=hidden;whiteSpace=wrap;html=1;perimeterSpacing=0;shadow=0;labelBorderColor=none;movable=1;resizable=1;rotatable=1;deletable=1;locked=0;fillColor=none;" vertex="1" parent="1">
          <mxGeometry x="470" y="540" width="50" height="40" as="geometry">
            <mxRectangle width="50" height="30" as="alternateBounds" />
          </mxGeometry>
        </mxCell>
        <mxCell id="j93-CXMJl5on4R9DwfRJ-8" value="&amp;nbsp; last_name" style="shape=partialRectangle;connectable=1;top=0;left=1;bottom=1;right=1;editable=1;overflow=hidden;whiteSpace=wrap;html=1;perimeterSpacing=0;shadow=0;labelBorderColor=none;movable=1;resizable=1;rotatable=1;deletable=1;locked=0;align=left;fillColor=none;" vertex="1" parent="1">
          <mxGeometry x="520" y="540" width="130" height="40" as="geometry">
            <mxRectangle width="50" height="30" as="alternateBounds" />
          </mxGeometry>
        </mxCell>
      </root>
    </mxGraphModel>
  </diagram>
</mxfile>
